<?xml version="1.0" encoding="utf-8"?><svg viewBox="0 0 100 100" xmlns="http://www.w3.org/2000/svg" width="200px" height="200px" xmlns:xlink="http://www.w3.org/1999/xlink" style="width:100%;height:100%;background-size:initial;background-repeat-y:initial;background-repeat-x:initial;background-position-y:initial;background-position-x:initial;background-origin:initial;background-color:initial;background-clip:initial;background-attachment:initial;animation-play-state:paused" ><g class="ldl-scale" style="transform-origin:50% 50%;transform:rotate(0deg) scale(0.8, 0.8);animation-play-state:paused" ><g style="animation-play-state:paused" ><path stroke-miterlimit="10" stroke-linejoin="round" stroke-linecap="round" stroke-width="3" stroke="#c33736" fill="none" d="M58.872 62.949c-1.976 3.422-8.457 7.154-11.408 5.451s-2.959-9.183-.983-12.605a7.154 7.154 0 1 1 12.391 7.154z" style="stroke:rgb(199, 67, 150);animation-play-state:paused" ></path>
    <path d="M47.465 68.4l-5.383 9.323" stroke-miterlimit="10" stroke-linejoin="round" stroke-linecap="round" stroke-width="3" stroke="#c33736" fill="none" style="stroke:rgb(199, 67, 150);animation-play-state:paused" ></path>
    <path d="M49.524 72.736l-2.112 3.658" stroke-miterlimit="10" stroke-linejoin="round" stroke-linecap="round" stroke-width="3" stroke="#c33736" fill="none" style="stroke:rgb(199, 67, 150);animation-play-state:paused" ></path>
    <path d="M42.68 68.784l-2.112 3.659" stroke-miterlimit="10" stroke-linejoin="round" stroke-linecap="round" stroke-width="3" stroke="#c33736" fill="none" style="stroke:rgb(199, 67, 150);animation-play-state:paused" ></path></g>
    <g style="animation-play-state:paused" ><path stroke-miterlimit="10" stroke-linejoin="round" stroke-linecap="round" stroke-width="3" stroke="#323232" fill="none" d="M60.374 66.643a4.81 4.81 0 0 0 3.787-2.394 4.82 4.82 0 0 0 .485-1.192l6.063 3.5 4.292-7.435-2.239-11.784 9.969-17.267.632-14.676a5.173 5.173 0 0 0-7.946-4.588l-12.394 7.885-9.811 16.993-11.719 4.091-4.292 7.435 6.063 3.5a4.79 4.79 0 0 0-1.004 5.418" style="stroke:rgb(146, 35, 192);animation-play-state:paused" ></path>
        <path d="M68.119 21.634l9.43 5.445" stroke-miterlimit="10" stroke-linejoin="round" stroke-linecap="round" stroke-width="3" stroke="#323232" fill="none" style="stroke:rgb(146, 35, 192);animation-play-state:paused" ></path></g>
    <path d="M81.714 52.217v30.19" stroke-miterlimit="10" stroke-linejoin="round" stroke-linecap="round" stroke-width="3" stroke="#323232" fill="none" style="stroke:rgb(146, 35, 192);animation-play-state:paused" ></path>
    <g style="animation-play-state:paused" ><path d="M18.286 82.407V43.935h11.227" stroke-miterlimit="10" stroke-linejoin="round" stroke-linecap="round" stroke-width="3" stroke="#323232" fill="none" style="stroke:rgb(146, 35, 192);animation-play-state:paused" ></path>
        <path stroke-miterlimit="10" stroke-linejoin="round" stroke-linecap="round" stroke-width="3" stroke="#323232" fill="none" d="M57.86 82.407a3.523 3.523 0 0 1-3.13 1.923h-9.462a3.524 3.524 0 0 1-3.13-1.923H12.035A7.593 7.593 0 0 0 19.628 90h60.743a7.593 7.593 0 0 0 7.593-7.593H57.86z" style="stroke:rgb(146, 35, 192);animation-play-state:paused" ></path></g>
    <metadata xmlns:d="https://loading.io/stock/" style="animation-play-state:paused" ><d:name style="animation-play-state:paused" >rocket</d:name>


        <d:tags style="animation-play-state:paused" >rocket,launch,space shuttle,take off,fire,star ship,flight,future,technology,landing page</d:tags>


        <d:license style="animation-play-state:paused" >by</d:license>


        <d:slug style="animation-play-state:paused" >wh2lja</d:slug></metadata></g><!-- generated by https://loading.io/ --></svg>