<?xml version="1.0" encoding="iso-8859-1"?>
<!-- Uploaded to: SVG Repo, www.svgrepo.com, Generator: SVG Repo Mixer Tools -->
<svg height="800px" width="800px" version="1.1" id="Layer_1" xmlns="http://www.w3.org/2000/svg" xmlns:xlink="http://www.w3.org/1999/xlink" 
	 viewBox="0 0 512 512" xml:space="preserve">
<circle style="fill:#59AAE7;" cx="256" cy="256" r="256"/>
<path style="fill:#3D9AE3;" d="M256,0c-11.317,0-22.461,0.744-33.391,2.167C348.216,18.53,445.217,125.933,445.217,256
	s-97.002,237.47-222.609,253.833C233.539,511.256,244.683,512,256,512c141.385,0,256-114.616,256-256S397.385,0,256,0z"/>
<path style="fill:#FCFCFC;" d="M164.689,311.141L82.127,269.86c-2.263-1.132-2.285-4.353-0.038-5.516L395.75,102.105
	c2.304-1.192,4.964,0.811,4.456,3.355l-54.004,270.017c-0.385,1.927-2.446,3.011-4.253,2.237l-73.393-31.453
	c-0.879-0.377-1.884-0.326-2.721,0.139l-94.839,52.688c-2.062,1.145-4.597-0.345-4.597-2.705v-82.474
	C166.4,312.736,165.738,311.665,164.689,311.141z"/>
<path style="fill:#D8D7DA;" d="M200.31,338.967l-0.513-82.428c-0.003-0.528,0.27-1.018,0.72-1.293l133.899-81.798
	c1.518-0.927,3.106,1.083,1.852,2.345l-101.9,102.624c-0.112,0.114-0.207,0.244-0.278,0.387l-17.43,34.858l-13.509,25.988
	C202.426,341.045,200.32,340.538,200.31,338.967z"/>
</svg>