<?xml version="1.0" encoding="utf-8"?>
<svg xmlns="http://www.w3.org/2000/svg" style="margin: auto; display: block; shape-rendering: auto;" width="157" height="77" preserveAspectRatio="xMidYMid">
<style type="text/css">
  text {
    text-anchor: middle; font-size: 80px; opacity: 0;
  }
</style>
<g style="transform-origin:78.5px 38.5px;transform:scale(1)">
<g transform="translate(78.5,38.5)">
  <g transform="translate(0,0)"><g class="path" style="transform: scale(0.96); transform-origin: -46.32px -5.4564px; animation: 1s linear -0.495s infinite normal forwards running breath-c9c21104-57af-4f14-bb37-00af263bd697;"><path d="M30.32-15.92L30.16-23.52L30.16-23.52Q30.16-25.36 27.92-25.52L27.92-25.52L22.24-25.52L22.24-25.52Q21.60-25.52 21.60-25.92L21.60-25.92L21.60-25.92Q22.08-28.24 23.28-29.64L23.28-29.64L23.28-29.64Q24.48-31.04 25.28-31.20L25.28-31.20L25.28-31.20Q27.52-31.52 32.64-31.52L32.64-31.52L32.64-31.52Q37.76-31.52 39.04-31.48L39.04-31.48L39.04-31.48Q40.32-31.44 40.64-31.20L40.64-31.20L40.64-31.20Q40.96-30.80 40.96-30.28L40.96-30.28L40.96-30.28Q40.96-29.76 40.68-23.64L40.68-23.64L40.68-23.64Q40.40-17.52 40.40-12.68L40.40-12.68L40.40-12.68Q40.40-7.84 40.72-6.60L40.72-6.60L40.72-6.60Q41.04-5.36 41.04-5.04L41.04-5.04L41.04-5.04Q41.04-3.76 38.80-2.28L38.80-2.28L38.80-2.28Q36.56-0.80 32.04 0.32L32.04 0.32L32.04 0.32Q27.52 1.44 22.08 1.44L22.08 1.44L22.08 1.44Q14.80 1.44 9.44-3.60L9.44-3.60L9.44-3.60Q5.28-7.60 3.72-12.32L3.72-12.32L3.72-12.32Q2.16-17.04 2.16-25.60L2.16-25.60L2.16-25.60Q2.16-57.36 25.44-57.36L25.44-57.36L25.44-57.36Q29.36-57.36 32.48-56.52L32.48-56.52L32.48-56.52Q35.60-55.68 37.96-53.24L37.96-53.24L37.96-53.24Q40.32-50.80 40.32-46.96L40.32-46.96L40.32-46.96Q40.32-44.96 39.52-42.88L39.52-42.88L39.52-42.88Q38.08-38.64 33.12-38.64L33.12-38.64L33.12-38.64Q30.40-38.64 29-40.04L29-40.04L29-40.04Q27.60-41.44 27.60-43.92L27.60-43.92L27.60-43.92Q27.60-44.88 28.64-45.12L28.64-45.12L28.64-45.12Q30.16-46 30.16-48.12L30.16-48.12L30.16-48.12Q30.16-50.24 28.56-51.40L28.56-51.40L28.56-51.40Q26.96-52.56 25.20-52.56L25.20-52.56L25.20-52.56Q21.36-52.56 18.72-49.80L18.72-49.80L18.72-49.80Q16.08-47.04 14.88-42.56L14.88-42.56L14.88-42.56Q12.88-34.56 12.88-26.24L12.88-26.24L12.88-26.24Q12.88-12.64 19.52-8.16L19.52-8.16L19.52-8.16Q22-6.40 24.72-6.40L24.72-6.40L24.72-6.40Q29.76-6.40 30.08-8.24L30.08-8.24L30.08-8.24Q30.32-10.72 30.32-15.92L30.32-15.92" fill="#fe5e5e" stroke="none" stroke-width="none" transform="translate(-67.92001342773438,22.503600463867187)" style="fill: rgb(254, 94, 94);"></path></g><g class="path" style="transform: scale(0.96); transform-origin: -10.04px 5.1036px; animation: 1s linear -0.33s infinite normal forwards running breath-c9c21104-57af-4f14-bb37-00af263bd697;"><path d="M52.96-20.32L52.96-20.32L53.04-18.32L53.04-18.32Q53.04-17.84 53.68-17.84L53.68-17.84L53.68-17.84Q56.24-18.08 58.16-19.16L58.16-19.16L58.16-19.16Q60.08-20.24 61.04-21.60L61.04-21.60L61.04-21.60Q62.96-24.56 63.12-26.72L63.12-26.72L63.20-27.68L63.20-27.68Q63.20-32 59.76-32L59.76-32L59.76-32Q57.20-32 55.60-29.76L55.60-29.76L55.60-29.76Q52.96-26.24 52.96-20.32zM70.40-9.68L70.40-9.68L70.40-9.68Q70.40-6.64 69.16-4.36L69.16-4.36L69.16-4.36Q67.92-2.08 66.36-1L66.36-1L66.36-1Q64.80 0.08 62.72 0.72L62.72 0.72L62.72 0.72Q60.08 1.52 57.68 1.52L57.68 1.52L57.68 1.52Q50.96 1.52 47.76-3.52L47.76-3.52L47.76-3.52Q44.56-8.56 44.56-16.36L44.56-16.36L44.56-16.36Q44.56-24.16 48.52-30.24L48.52-30.24L48.52-30.24Q52.48-36.32 60.40-36.32L60.40-36.32L60.40-36.32Q67.60-36.32 70.16-31.28L70.16-31.28L70.16-31.28Q71.20-29.36 71.20-27.64L71.20-27.64L71.20-27.64Q71.20-25.92 71.04-24.92L71.04-24.92L71.04-24.92Q70.88-23.92 69.92-21.92L69.92-21.92L69.92-21.92Q68.96-19.92 67.36-18.32L67.36-18.32L67.36-18.32Q65.76-16.72 62.32-15.28L62.32-15.28L62.32-15.28Q58.88-13.84 54.24-13.36L54.24-13.36L54.24-13.36Q53.60-13.36 53.60-12.80L53.60-12.80L53.60-12.80Q53.60-12.08 54.12-10.68L54.12-10.68L54.12-10.68Q54.64-9.28 55.28-8.32L55.28-8.32L55.28-8.32Q57.04-6.08 60.48-6.08L60.48-6.08L60.48-6.08Q63.92-6.08 66.32-8.32L66.32-8.32L66.32-8.32Q67.60-9.52 68.40-11.28L68.40-11.28L68.40-11.28Q68.72-11.92 69.24-11.92L69.24-11.92L69.24-11.92Q69.76-11.92 70.08-11.04L70.08-11.04L70.08-11.04Q70.40-10.16 70.40-9.68" fill="#fe5e5e" stroke="none" stroke-width="none" transform="translate(-67.92001342773438,22.503600463867187)" style="fill: rgb(226, 80, 125);"></path></g><g class="path" style="transform: scale(0.96); transform-origin: 14.64px 0.1436px; animation: 1s linear -0.165s infinite normal forwards running breath-c9c21104-57af-4f14-bb37-00af263bd697;"><path d="M73.60-31.20L73.60-31.20L73.84-34.40L73.84-34.40Q73.92-35.12 74.96-35.12L74.96-35.12L77.76-35.12L77.44-41.52L77.44-41.84L77.44-41.84Q77.44-43.68 80.24-45.36L80.24-45.36L80.24-45.36Q83.04-47.04 85.36-47.04L85.36-47.04L85.36-47.04Q86.08-47.04 86.08-46.40L86.08-46.40L86.08-46.32L86.08-46.32Q85.76-44.16 85.44-35.20L85.44-35.20L85.44-35.20Q88.96-35.20 89.92-35.36L89.92-35.36L89.92-35.36Q90.88-35.52 90.96-35.52L90.96-35.52L90.96-35.52Q91.52-35.52 91.52-34.56L91.52-34.56L91.52-34.56Q91.52-33.60 90.64-32.12L90.64-32.12L90.64-32.12Q89.76-30.64 88.72-30.56L88.72-30.56L85.36-30.56L85.36-30.56Q85.28-27.84 85.28-21.40L85.28-21.40L85.28-21.40Q85.28-14.96 85.40-10.80L85.40-10.80L85.40-10.80Q85.52-6.64 85.68-4.52L85.68-4.52L85.68-4.52Q85.84-2.40 86.04-1.12L86.04-1.12L86.04-1.12Q86.24 0.16 86.36 0.72L86.36 0.72L86.36 0.72Q86.48 1.28 86.48 1.44L86.48 1.44L86.48 1.44Q86.48 2.24 85.44 2.32L85.44 2.32L85.44 2.32Q82.32 2.32 79.24 1.44L79.24 1.44L79.24 1.44Q76.16 0.56 76.16-1.60L76.16-1.60L76.16-1.60Q77.84-15.04 77.84-30.48L77.84-30.48L77.84-30.48Q75.68-30.48 74.56-30.32L74.56-30.32L74.48-30.32L74.48-30.32Q73.76-30.32 73.60-31.20" fill="#fe5e5e" stroke="none" stroke-width="none" transform="translate(-67.92001342773438,22.503600463867187)" style="fill: rgb(199, 67, 150);"></path></g><g class="path" style="transform: scale(0.96); transform-origin: 45.88px -5.4964px; animation: 1s linear 0s infinite normal forwards running breath-c9c21104-57af-4f14-bb37-00af263bd697;"><path d="M134.20-52.20L134.20-52.20L134.20-52.20Q132.48-50.32 130.60-47.92L130.60-47.92L130.60-47.92Q128.72-45.52 124.36-38.84L124.36-38.84L124.36-38.84Q120-32.16 120-30.96L120-30.96L120.16-30.40L120.16-30.40Q129.84-8 136.96-4.32L136.96-4.32L136.96-4.32Q137.84-4 137.84-3.36L137.84-3.36L137.84-3.36Q137.84-1.92 133.44-0.32L133.44-0.32L133.44-0.32Q130.88 0.56 128.84 0.56L128.84 0.56L128.84 0.56Q126.80 0.56 125.96 0.16L125.96 0.16L125.96 0.16Q125.12-0.24 124.24-1.28L124.24-1.28L124.24-1.28Q123.36-2.32 122.68-3.40L122.68-3.40L122.68-3.40Q122-4.48 120.92-6.72L120.92-6.72L120.92-6.72Q119.84-8.96 119-10.84L119-10.84L119-10.84Q118.16-12.72 116.64-16.16L116.64-16.16L116.64-16.16Q115.12-19.60 113.84-22.40L113.84-22.40L113.84-22.40Q113.60-22.80 113.28-22.80L113.28-22.80L113.28-22.80Q112.96-22.80 112.64-22.32L112.64-22.32L112.64-22.32Q106.48-11.92 103.28-2.72L103.28-2.72L103.28-2.72Q102.88-0.96 99.76 0.28L99.76 0.28L99.76 0.28Q96.64 1.52 93.12 1.52L93.12 1.52L93.12 1.52Q89.60 1.52 89.60 0.48L89.60 0.48L89.60 0.48Q89.60 0.08 90.12-0.36L90.12-0.36L90.12-0.36Q90.64-0.80 91.28-1.40L91.28-1.40L91.28-1.40Q91.92-2 93.96-4.36L93.96-4.36L93.96-4.36Q96-6.72 98.16-9.68L98.16-9.68L98.16-9.68Q103.84-17.60 109.60-29.36L109.60-29.36L109.60-29.36Q109.84-29.84 109.84-30.16L109.84-30.16L109.68-30.72L109.68-30.72Q103.44-46 98.48-51.20L98.48-51.20L98.48-51.20Q97.28-52.40 96.24-52.72L96.24-52.72L96.24-52.72Q95.44-53.20 95.44-53.92L95.44-53.92L95.44-53.92Q95.44-55.36 99.52-56.44L99.52-56.44L99.52-56.44Q103.60-57.52 105.88-57.52L105.88-57.52L105.88-57.52Q108.16-57.52 109.04-56.08L109.04-56.08L109.04-56.08Q109.92-54.64 110.92-52.16L110.92-52.16L110.92-52.16Q111.92-49.68 113.04-46.88L113.04-46.88L113.04-46.88Q115.84-39.76 116.32-38.88L116.32-38.88L116.32-38.88Q116.80-38 117.08-38L117.08-38L117.08-38Q117.36-38 117.60-38.40L117.60-38.40L117.60-38.40Q122.48-47.12 125.84-54.56L125.84-54.56L125.84-54.56Q126.40-56.08 129-56.64L129-56.64L129-56.64Q131.60-57.20 134.80-57.20L134.80-57.20L134.80-57.20Q138-57.20 138-56.32L138-56.32L138-56.32Q138-55.84 137.48-55.40L137.48-55.40L137.48-55.40Q136.96-54.96 136.44-54.52L136.44-54.52L136.44-54.52Q135.92-54.08 134.20-52.20" fill="#fe5e5e" stroke="none" stroke-width="none" transform="translate(-67.92001342773438,22.503600463867187)" style="fill: rgb(167, 41, 255);"></path></g></g>
</g>
</g>
<style id="breath-c9c21104-57af-4f14-bb37-00af263bd697" data-anikit="">@keyframes breath-c9c21104-57af-4f14-bb37-00af263bd697
{
  0% {
    animation-timing-function: cubic-bezier(0.5897,0.3128,0.3103,0.7014);
    transform: scale(0.96);
  }
  51% {
    animation-timing-function: cubic-bezier(0.5455,0.3194,0.3714,0.6901);
    transform: scale(0.9799800000000001);
  }
  100% {
    transform: scale(0.96);
  }
}</style></svg>